PathFileType  4	(X/Y/Z) C:\Users\antoi\Documents\MyRepositories\mobilecap\ResultsAnalysis
DataRate	CameraRate	NumFrames	NumMarkers	Units	OrigDataRate	OrigDataStartFrame	OrigNumFrames
100.0	100.0	6	51	mm	100.0	178	237
Frame#	Time	r_knee			r_shank_antsup			r_ankle			r_calc			r_5meta			r_toe			L_knee			L_shank_antsup			L_ankle			L_calc			L_5meta			L_toe			r_sh2			r_sh3			r_sh4			L_sh2			L_sh3			r_thigh1			r_thigh2			r_thigh3			r_thigh4			r_thigh5			L_thigh1			L_thigh2			L_thigh3			L_thigh4			r.ASIS			r.PSIS			L.ASIS			L.PSIS			C7			R_Shoulder			L_Shoulder			R_Sternum			L_Sternum			R_humerus			R_elbow_med			R_elbow_lat			R_forearm			R_wrist_radius			R_wrist_ulna			L_humerus			L_elbow_med			L_elbow_lat			L_forearm			L_wrist_radius			L_wrist_ulna			R_HJC			L_HJC			R_HJC_reg			L_HJC_reg			
		X1	Y1	Z1	X2	Y2	Z2	X3	Y3	Z3	X4	Y4	Z4	X5	Y5	Z5	X6	Y6	Z6	X7	Y7	Z7	X8	Y8	Z8	X9	Y9	Z9	X10	Y10	Z10	X11	Y11	Z11	X12	Y12	Z12	X13	Y13	Z13	X14	Y14	Z14	X15	Y15	Z15	X16	Y16	Z16	X17	Y17	Z17	X18	Y18	Z18	X19	Y19	Z19	X20	Y20	Z20	X21	Y21	Z21	X22	Y22	Z22	X23	Y23	Z23	X24	Y24	Z24	X25	Y25	Z25	X26	Y26	Z26	X27	Y27	Z27	X28	Y28	Z28	X29	Y29	Z29	X30	Y30	Z30	X31	Y31	Z31	X32	Y32	Z32	X33	Y33	Z33	X34	Y34	Z34	X35	Y35	Z35	X36	Y36	Z36	X37	Y37	Z37	X38	Y38	Z38	X39	Y39	Z39	X40	Y40	Z40	X41	Y41	Z41	X42	Y42	Z42	X43	Y43	Z43	X44	Y44	Z44	X45	Y45	Z45	X46	Y46	Z46	X47	Y47	Z47	X48	Y48	Z48	X49	Y49	Z49	X50	Y50	Z50	X51	Y51	Z51	

178	1.77000000	-119.77742	478.67239	-404.90398	-129.74703	407.20135	-379.68276	-251.90982	135.72261	-446.46932	-324.51675	134.06372	-494.81451	-183.01811	51.49686	-416.20840	-128.42855	55.76176	-465.13070	-128.76060	491.42743	-792.96189	-113.58261	418.63701	-804.37536	-242.24956	140.12869	-771.62639	-319.63311	141.51785	-723.18354	-182.60571	54.81110	-795.45207	-126.45735	56.12474	-742.62335	-171.50744	301.73848	-389.14312	-192.06474	434.40013	-410.06172	-241.44843	330.14476	-422.47309	-196.80906	452.64447	-810.62429	-230.47334	334.86314	-809.32297	-178.14009	783.80111	-426.87535	-130.97178	683.22431	-402.44767	-176.43181	642.49907	-374.43668	-279.02281	744.95478	-392.45564	-231.19887	638.29426	-390.31945	-154.59132	783.40844	-763.66120	-108.22543	654.65218	-788.28802	-265.03976	749.55349	-782.39390	-210.95083	619.36883	-796.75353	-202.43496	886.52580	-442.19180	-365.54786	944.02868	-538.43380	-166.38023	912.71951	-692.64501	-355.22507	950.48802	-643.06547	-166.10823	1383.23299	-524.57655	-128.61178	1311.40555	-396.79296	-105.84019	1359.75254	-659.37352	-58.65565	1281.55936	-511.01581	-52.99442	1289.48356	-554.94277	-17.65390	1177.82900	-267.52391	32.57878	1056.56662	-269.72973	32.47491	1116.79104	-224.33581	142.61958	1158.57797	-263.11427	250.68184	1177.78651	-308.16723	265.70000	1153.84783	-273.53153	-28.04027	1339.60520	-735.33243	74.98297	1214.25283	-895.35200	78.11601	1286.98178	-906.39678	118.25427	1298.18849	-799.79651	161.09828	1270.34200	-689.88616	194.33787	1281.86525	-703.80043	-274.64249	827.28737	-487.56809	-241.23431	848.89235	-683.86482	-269.71934	826.54131	-488.48005	-253.26758	836.83162	-655.25051	
179	1.78000000	-134.78144	490.61632	-405.15740	-142.99106	419.03021	-379.23313	-248.99363	139.57751	-443.63061	-319.85839	141.60564	-491.49638	-181.34178	52.23518	-414.87409	-126.97919	55.82182	-463.79961	-143.58005	510.16470	-790.00110	-127.60785	439.28218	-802.28831	-233.66317	149.82965	-775.62386	-308.21315	156.98156	-727.11454	-178.64342	57.64535	-797.05165	-122.53201	56.02991	-744.19134	-179.43276	311.45840	-387.70863	-205.83052	442.63785	-411.57891	-249.77934	335.73779	-423.07124	-213.04587	467.34839	-807.44793	-238.09676	347.48436	-808.89246	-169.77948	801.54226	-425.39216	-130.22409	697.55726	-401.20320	-179.36660	659.69166	-374.96128	-274.03703	769.13644	-394.47113	-234.00227	659.22624	-391.78776	-146.09704	805.01215	-761.38755	-109.57688	672.93007	-785.39202	-258.22751	778.95705	-782.59201	-214.26041	645.12182	-796.17200	-190.13403	911.77387	-442.35666	-354.35482	966.45346	-536.48057	-156.12221	942.22753	-691.58916	-344.65618	975.11973	-641.82724	-172.18420	1412.94089	-524.62365	-135.52674	1341.78841	-396.24613	-113.82973	1388.69520	-661.49389	-62.31201	1314.05373	-510.21739	-56.62819	1321.60869	-554.34187	-28.87394	1195.37322	-269.76710	15.40346	1073.69702	-276.93143	17.89981	1130.54094	-228.18414	138.07287	1157.24631	-253.90002	252.82148	1161.32501	-285.97469	260.57959	1133.44494	-252.08775	-38.95246	1364.34114	-738.84023	57.32079	1229.93770	-897.72370	65.71287	1301.65569	-907.94772	113.41281	1309.50513	-804.65753	162.25030	1278.64240	-697.98501	195.20610	1287.87871	-713.43922	-261.00939	851.39186	-487.94947	-228.87190	876.60035	-684.03846	-255.83361	850.58930	-489.27372	-240.55046	864.23306	-655.23533	
180	1.79000000	-151.44324	505.34646	-407.42950	-158.04088	432.98337	-380.36673	-244.69943	145.06619	-439.28706	-313.27521	151.66750	-486.68734	-179.03600	53.43997	-412.63656	-124.96732	55.96792	-461.92593	-159.98624	530.84461	-785.19863	-142.38681	462.49900	-798.36004	-222.17820	162.96570	-781.12555	-293.96309	175.54379	-732.19901	-173.25699	62.75936	-799.28947	-117.41000	57.89466	-746.52361	-188.08948	323.24425	-386.71968	-221.45124	452.11111	-414.60509	-258.94589	342.35059	-424.02905	-229.67789	483.67261	-802.33728	-244.96942	362.34757	-807.43922	-161.61482	819.83525	-424.86139	-130.05461	713.20612	-401.05390	-182.43067	678.43666	-376.35601	-268.37367	794.80718	-395.71794	-236.77936	681.95966	-393.53357	-138.09465	827.47680	-759.16133	-111.16113	692.46378	-780.89357	-251.14803	808.49780	-782.46260	-217.15180	671.73017	-794.94913	-177.50155	939.06381	-442.77362	-343.08846	989.27476	-534.13754	-146.17643	971.34713	-690.97379	-334.36703	999.88652	-640.05423	-177.19808	1441.24331	-525.06608	-142.13549	1371.26581	-396.18937	-121.51877	1416.98182	-663.86284	-65.42828	1344.91782	-509.57987	-59.69084	1352.44984	-555.05227	-38.78239	1212.98856	-273.76861	-0.28225	1092.09358	-286.13417	4.76587	1145.65707	-233.19993	131.54356	1154.54523	-246.26258	248.07228	1141.45503	-265.12892	248.45254	1110.11777	-233.68205	-48.40226	1387.37123	-740.92715	40.15321	1243.25012	-897.78449	53.84948	1313.26037	-907.88290	110.16167	1318.81680	-809.05971	164.27813	1286.10778	-705.05986	196.71256	1291.61275	-722.73594	-246.84193	876.85616	-487.52820	-216.93269	904.10671	-683.69207	-241.12198	875.24171	-490.12094	-227.52612	891.78686	-655.21778	
181	1.80000000	-168.47752	522.37639	-411.76418	-174.45625	449.27365	-383.69584	-237.35382	153.34716	-432.95445	-303.22347	165.32770	-480.11865	-175.65250	55.30948	-410.06681	-121.73397	56.32262	-459.42453	-176.88669	552.95845	-778.95298	-155.79990	487.51507	-792.79418	-211.48814	180.76005	-786.92978	-281.38465	195.50845	-736.46252	-166.73696	75.31878	-803.92734	-110.78188	67.84839	-751.83178	-196.66286	338.27506	-386.36716	-238.51525	462.78757	-419.33410	-268.02592	350.39360	-425.59122	-244.54991	501.80152	-795.85522	-250.17699	379.75305	-804.53416	-153.23371	838.61351	-425.21626	-129.67954	729.89953	-402.37143	-184.71688	698.56869	-378.30899	-261.65430	821.16664	-396.11830	-238.50416	706.20172	-395.21034	-130.75360	849.29526	-756.76957	-113.09899	712.06436	-775.11288	-244.32950	836.87389	-781.55225	-220.05452	698.08197	-792.90664	-165.18744	967.19037	-442.84344	-332.21805	1012.14022	-531.47442	-136.95686	1000.24479	-690.30427	-324.64500	1024.34651	-637.67940	-180.95253	1467.78538	-525.50676	-148.22243	1398.81514	-396.59635	-128.95041	1443.78995	-665.44519	-67.95887	1373.59489	-509.18204	-62.27135	1380.71506	-555.73593	-46.87349	1231.52769	-278.10771	-14.02554	1111.01639	-295.64733	-7.29509	1161.59303	-238.04465	121.80735	1151.16772	-240.20926	235.39745	1120.94352	-248.79384	228.73281	1087.08115	-220.47356	-57.00531	1408.75018	-742.16748	24.13425	1253.76652	-894.37207	42.42619	1321.78338	-906.39204	107.68908	1326.00512	-812.90010	166.32160	1292.37373	-711.27395	197.68585	1293.69169	-731.51784	-232.82246	902.85320	-486.42391	-205.60205	931.36963	-682.79589	-226.58781	900.33227	-490.50568	-214.87514	919.22554	-654.83757	
182	1.81000000	-185.70741	540.97180	-418.03815	-191.06109	468.43164	-389.61480	-226.45683	165.85223	-425.44040	-289.48686	183.58810	-472.79271	-170.90666	60.09055	-407.64055	-116.68464	59.27119	-455.88409	-190.50049	576.18999	-771.70278	-165.42177	513.17933	-785.82682	-206.97796	202.73964	-791.01689	-275.41081	213.69152	-737.96099	-160.27081	98.45030	-812.65979	-102.83603	90.46703	-762.44587	-204.24223	357.21843	-387.28067	-255.77668	475.21878	-425.79661	-275.89173	360.99973	-428.23649	-255.00750	522.72641	-788.63175	-253.82331	400.78557	-801.07550	-144.62164	857.65292	-426.29887	-128.83909	747.17113	-405.23667	-185.78658	719.34410	-380.97043	-253.91952	847.31059	-395.73420	-239.00729	731.07118	-396.81925	-124.40849	869.21715	-754.02291	-115.39299	730.62728	-768.34186	-238.29161	863.03205	-780.09510	-222.93496	722.91836	-788.66904	-153.89767	994.77886	-442.31433	-322.08502	1034.69265	-528.38209	-128.95999	1028.41409	-688.87621	-315.64163	1048.36198	-634.82341	-183.51477	1492.18627	-525.59327	-153.48369	1423.60339	-397.67545	-135.68726	1468.19897	-666.09538	-69.82876	1399.44555	-509.17988	-64.69589	1405.79913	-555.74419	-53.78953	1250.13042	-281.70994	-26.08621	1129.82170	-304.57075	-19.72710	1176.29972	-242.27003	107.42856	1147.78756	-236.12145	215.73854	1102.53317	-238.44274	202.90111	1067.82585	-212.94926	-64.87850	1428.55680	-743.63651	9.95375	1261.32697	-886.90638	31.39246	1327.42830	-903.70429	104.84144	1330.69537	-815.84005	168.21952	1297.13394	-716.62960	197.85619	1294.57469	-739.33580	-219.88940	928.45497	-484.73992	-195.31610	958.04649	-681.30573	-213.24381	925.20888	-490.30305	-203.35042	946.19227	-653.72543	
183	1.82000000	-202.60055	561.67739	-425.41054	-204.68910	490.97584	-397.03898	-215.29159	183.26407	-419.31428	-275.75881	204.67873	-468.04333	-164.99789	71.93522	-404.66466	-109.56186	69.74605	-450.40474	-196.87283	600.01392	-763.97656	-170.16453	538.44364	-778.08770	-208.85378	226.58452	-792.92053	-275.24912	229.44311	-736.75613	-156.40734	128.30618	-824.41309	-96.05748	121.29104	-777.67763	-208.99459	379.73606	-389.26244	-270.28807	490.72166	-432.47751	-280.72270	375.52715	-430.53386	-259.83644	546.82449	-780.51073	-256.84463	425.70433	-797.80567	-135.99700	875.91047	-428.09515	-128.02329	764.03717	-409.18758	-186.07787	739.44292	-384.83955	-245.46884	871.87720	-394.39644	-238.78993	755.06958	-398.88842	-119.38212	887.68442	-751.01307	-117.25696	748.42853	-760.82690	-233.34869	886.62791	-778.57252	-224.77798	745.52906	-781.04377	-143.99242	1021.20198	-441.49107	-312.87714	1056.82727	-524.91632	-122.41585	1054.56257	-686.69544	-307.73452	1071.80462	-631.55517	-185.26171	1514.35905	-525.26672	-157.05411	1445.77443	-398.91639	-141.02316	1489.84462	-666.29637	-70.98939	1422.22191	-509.70385	-66.87663	1428.19331	-555.79537	-61.15062	1266.35154	-283.87698	-38.78603	1146.59526	-311.68510	-33.71510	1187.94135	-246.18062	88.90859	1145.45287	-234.37311	191.70114	1088.05544	-233.33125	173.91387	1054.29120	-209.90133	-71.56690	1446.46176	-745.48300	-2.28088	1266.53067	-876.77106	20.74369	1330.43018	-899.79925	100.87977	1332.92396	-817.33189	170.28508	1300.29969	-721.29157	197.74991	1294.32660	-746.01426	-208.74828	953.20955	-482.42570	-186.74506	983.23565	-679.22919	-201.50107	949.22420	-489.59352	-193.67491	971.99733	-651.75907	
